<?xml version="1.0" encoding="UTF-8"?>
<!DOCTYPE svg PUBLIC "-//W3C//DTD SVG 1.1//EN" "http://www.w3.org/Graphics/SVG/1.1/DTD/svg11.dtd">
<!-- Creator: CorelDRAW 2019 (64-Bit) -->
<svg xmlns="http://www.w3.org/2000/svg" xml:space="preserve" width="22px" height="22px" version="1.1" style="shape-rendering:geometricPrecision; text-rendering:geometricPrecision; image-rendering:optimizeQuality; fill-rule:evenodd; clip-rule:evenodd"
viewBox="0 0 0.61 0.61"
 xmlns:xlink="http://www.w3.org/1999/xlink"
 xmlns:xodm="http://www.corel.com/coreldraw/odm/2003">
 <defs>
  <style type="text/css">
   <![CDATA[
    .fil0 {fill:#66C05D;fill-rule:nonzero}
   ]]>
  </style>
 </defs>
 <g id="Слой_x0020_1">
  <metadata id="CorelCorpID_0Corel-Layer"/>
  <g id="_1862820910080">
   <path id="Vector.svg" class="fil0" d="M0.42 0l-0.23 0c-0.1,0 -0.19,0.09 -0.19,0.19l0 0.23c0,0.1 0.09,0.19 0.19,0.19l0.23 0c0.1,0 0.19,-0.09 0.19,-0.19l0 -0.23c0,-0.1 -0.09,-0.19 -0.19,-0.19zm0.13 0.42c0,0.07 -0.06,0.13 -0.13,0.13l-0.23 0c-0.07,0 -0.13,-0.06 -0.13,-0.13l0 -0.23c0,-0.07 0.06,-0.13 0.13,-0.13l0.23 0c0.07,0 0.13,0.06 0.13,0.13l0 0.23z"/>
   <path id="Vector-1.svg" class="fil0" d="M0.3 0.15c-0.08,0 -0.15,0.07 -0.15,0.15 0,0.09 0.07,0.16 0.15,0.16 0.09,0 0.16,-0.07 0.16,-0.16 0,-0.08 -0.07,-0.15 -0.16,-0.15zm0 0.25c-0.05,0 -0.09,-0.04 -0.09,-0.1 0,-0.05 0.04,-0.09 0.09,-0.09 0.06,0 0.1,0.04 0.1,0.09 0,0.06 -0.04,0.1 -0.1,0.1z"/>
   <path id="Vector-2.svg" class="fil0" d="M0.47 0.17c0.01,0 0.02,-0.01 0.02,-0.02 0,-0.01 -0.01,-0.02 -0.02,-0.02 -0.01,0 -0.02,0.01 -0.02,0.02 0,0.01 0.01,0.02 0.02,0.02z"/>
  </g>
 </g>
</svg>
